<?xml version="1.0" encoding="UTF-8"?>
<svg version="1.1" xmlns="http://www.w3.org/2000/svg" width="25" height="25" viewBox="0 0 440 465" fill="none" xmlns:xlink="http://www.w3.org/1999/xlink">
<path d="M0 0 C4.41385026 0.60880693 6.00846429 2.10884415 8.625 5.5 C10.93521208 9.18251754 12.99583673 12.98926031 15.0625 16.8125 C16.31194609 19.08435506 17.56329605 21.35516394 18.81640625 23.625 C19.45078613 24.77613281 20.08516602 25.92726563 20.73876953 27.11328125 C23.58494101 32.22356999 26.53580957 37.27002283 29.5 42.3125 C35.454255 52.45838774 41.30799337 62.65853378 47.12060547 72.88598633 C50.51301968 78.84503541 53.95423475 84.75559777 57.57617188 90.57861328 C58.625 92.5 58.625 92.5 58.625 94.5 C59.28806152 94.2733667 59.95112305 94.0467334 60.63427734 93.81323242 C89.25512447 84.11556588 117.63104566 79.21134714 147.625 86.5 C148.66841553 86.74943359 148.66841553 86.74943359 149.73291016 87.00390625 C173.28203057 92.83316365 194.40861645 104.34308582 211.625 121.5 C212.44871094 122.31726563 213.27242188 123.13453125 214.12109375 123.9765625 C241.44586803 151.51447855 253.98781656 186.38999895 253.93969727 224.96166992 C253.68638926 263.40217141 236.78077653 296.27211667 210.0078125 323.125 C184.0439867 347.77907791 147.96815441 360.28857344 112.4296875 359.6875 C94.37413802 358.79769879 75.92827313 355.65163657 59.625 347.5 C59.63388245 348.3054425 59.64276489 349.11088501 59.6519165 349.94073486 C59.73208005 357.53298545 59.79297298 365.12503072 59.83224869 372.71759415 C59.85311969 376.62099518 59.88142757 380.5240464 59.92675781 384.42724609 C59.97023427 388.1944192 59.99414077 391.96125595 60.00450897 395.72866058 C60.01189723 397.16560919 60.02632506 398.60253947 60.04792023 400.03934479 C60.07697203 402.05241425 60.07863405 404.06582253 60.07910156 406.07910156 C60.08798401 407.22493713 60.09686646 408.37077271 60.10601807 409.55133057 C59.48675238 413.34746616 58.73966064 414.24709455 55.625 416.5 C52.51603592 417.09767739 49.44497348 417.03505088 46.28735352 417.00120544 C45.33120683 417.00673984 44.37506014 417.01227424 43.38993931 417.01797634 C40.17766596 417.03161799 36.96616486 417.01659425 33.75390625 417.00170898 C31.45441354 417.00549087 29.15492311 417.01098983 26.85543823 417.01808167 C20.60344335 417.03207043 14.35172261 417.02084233 8.09974289 417.00437045 C1.56462119 416.99054481 -4.9704842 416.99697719 -11.50561523 417.00050354 C-22.48132592 417.00393838 -33.45693337 416.98980029 -44.43261719 416.96655273 C-55.72758031 416.94263157 -67.02239891 416.93554829 -78.31738281 416.94604492 C-91.92517502 416.95866821 -105.53286545 416.95616629 -119.14065552 416.94038582 C-124.33995118 416.93461921 -129.53919848 416.93471401 -134.73849487 416.93945122 C-140.85834454 416.94421481 -146.97799354 416.93414479 -153.09780502 416.91249657 C-155.34725136 416.90692012 -157.59671696 416.90647122 -159.8461647 416.91144943 C-162.91011887 416.91738107 -165.97345512 416.90493759 -169.03735352 416.88768005 C-169.93345557 416.8936901 -170.82955763 416.89970014 -171.75281429 416.90589231 C-175.09205774 416.87154841 -177.78238217 416.71895148 -180.92727757 415.55702305 C-183.37864551 412.07395182 -182.92012233 408.34920849 -182.87620544 404.19995117 C-182.88173984 403.23578624 -182.88727424 402.2716213 -182.89297634 401.27823925 C-182.90663862 398.03289042 -182.89158315 394.78830323 -182.87670898 391.54296875 C-182.88049012 389.22229687 -182.88598846 386.90162725 -182.89308167 384.58096313 C-182.9070802 378.26699574 -182.89583553 371.9532995 -182.87937045 365.63934708 C-182.8655538 359.04235859 -182.87197616 352.44538639 -182.87550354 345.84838867 C-182.87893933 334.76834899 -182.86479402 323.68841152 -182.84155273 312.60839844 C-182.81763103 301.20275864 -182.81054806 289.79726195 -182.82104492 278.39160156 C-182.83366404 264.65528997 -182.83116996 250.91907924 -182.81538582 237.18276978 C-182.80961616 231.93240819 -182.80971639 226.68209449 -182.81445122 221.43173218 C-182.81921153 215.2528037 -182.80915847 209.07407417 -182.78749657 202.89518356 C-182.78191563 200.62274217 -182.78147529 198.3502817 -182.78644943 196.0778389 C-182.79237197 192.98501886 -182.77995531 189.89281335 -182.76268005 186.80004883 C-182.7686901 185.89256991 -182.77470014 184.985091 -182.78089231 184.05011272 C-182.77245237 183.22390832 -182.76401243 182.39770391 -182.75531673 181.54646301 C-182.7542876 180.83231641 -182.75325848 180.1181698 -182.75219816 179.38238239 C-182.2552241 176.9022663 -181.3735646 176.01333831 -179.375 174.5 C-176.88162382 174.21960592 -174.64111438 174.1205076 -172.1496582 174.15942383 C-171.41770233 174.15898575 -170.68574646 174.15854767 -169.93161011 174.15809631 C-167.51272895 174.16018602 -165.09454129 174.18352485 -162.67578125 174.20703125 C-160.99855427 174.21262658 -159.32132238 174.21689697 -157.64408875 174.21989441 C-153.22987325 174.23134822 -148.81595395 174.26081989 -144.40185547 174.29400635 C-139.8975017 174.32469575 -135.39310006 174.33839732 -130.88867188 174.35351562 C-122.05065113 174.38568917 -113.21285019 174.43689192 -104.375 174.5 C-103.92559052 173.34779716 -103.92559052 173.34779716 -103.46710205 172.1723175 C-102.25144362 169.19766389 -100.77189336 166.51740078 -99.171875 163.73046875 C-98.52863281 162.60705078 -97.88539062 161.48363281 -97.22265625 160.32617188 C-96.52355234 159.11321505 -95.82433056 157.90032616 -95.125 156.6875 C-94.39954649 155.42393897 -93.67428874 154.16026552 -92.94921875 152.89648438 C-87.89719693 144.10068817 -82.7920285 135.33620262 -77.66699219 126.58276367 C-73.18492366 118.91756602 -68.77096222 111.21472895 -64.375 103.5 C-58.83514067 93.77875494 -53.24125068 84.09105132 -47.59155273 74.43310547 C-43.34882721 67.17788264 -39.1350339 59.90645858 -34.9375 52.625 C-34.32132813 51.55620605 -33.70515625 50.48741211 -33.0703125 49.38623047 C-30.49593069 44.91927578 -27.92274077 40.45163579 -25.35058594 35.98339844 C-23.99384742 33.62653709 -22.63666779 31.26993076 -21.27905273 28.91357422 C-20.00953881 26.70993131 -18.74076732 24.50586045 -17.47290039 22.30126953 C-15.78028101 19.36357241 -14.08019671 16.43041213 -12.375 13.5 C-11.82730957 12.55511719 -11.27961914 11.61023437 -10.71533203 10.63671875 C-10.19181152 9.74597656 -9.66829102 8.85523438 -9.12890625 7.9375 C-8.66943604 7.15246094 -8.20996582 6.36742187 -7.73657227 5.55859375 C-5.378225 1.99295199 -4.34230898 0.64330503 0 0 Z M-0.375 23.5 C-0.75084229 24.15145996 -1.12668457 24.80291992 -1.51391602 25.47412109 C-17.81945801 53.73706055 -17.81945801 53.73706055 -34.125 82 C-34.74383057 83.07266113 -35.36266113 84.14532227 -36.00024414 85.25048828 C-37.24935518 87.41557071 -38.49854129 89.58060982 -39.74780273 91.74560547 C-42.88702309 97.18615706 -46.02490563 102.62747216 -49.16015625 108.0703125 C-55.20555204 118.56232172 -61.26621011 129.04475319 -67.375 139.5 C-77.83657659 157.40847626 -88.17593513 175.38623901 -98.45108032 193.40216064 C-103.07168819 201.50088084 -107.73115764 209.57576642 -112.4375 217.625 C-117.19428413 225.76250838 -121.9476657 233.90186398 -126.67111206 242.05877686 C-127.66756244 243.77809881 -128.66688231 245.4957567 -129.66625977 247.21337891 C-130.26752686 248.25284668 -130.86879395 249.29231445 -131.48828125 250.36328125 C-132.02235596 251.28407471 -132.55643066 252.20486816 -133.10668945 253.15356445 C-134.48503655 255.5419151 -134.48503655 255.5419151 -135.375 258.5 C-45.945 258.5 43.485 258.5 135.625 258.5 C134.17377547 254.87193866 132.74955815 251.75771216 130.859375 248.38671875 C130.02998413 246.90473999 130.02998413 246.90473999 129.18383789 245.39282227 C128.58692139 244.33506592 127.99000488 243.27730957 127.375 242.1875 C126.43998657 240.52448853 126.43998657 240.52448853 125.48608398 238.82788086 C120.14626695 229.36059123 114.68376975 219.96700035 109.1875 210.58984375 C105.4928669 204.28429581 101.83647319 197.95705564 98.1875 191.625 C97.56496338 190.54484619 96.94242676 189.46469238 96.30102539 188.35180664 C95.03923174 186.16203666 93.77759466 183.97217645 92.51611328 181.78222656 C89.38819852 176.35340058 86.25641552 170.92680719 83.125 165.5 C81.87498121 163.33334417 80.62498122 161.1666775 79.375 159 C78.75625 157.9275 78.1375 156.855 77.5 155.75 C41.875 94 41.875 94 39.99975586 90.74951172 C38.75064482 88.58442929 37.50145871 86.41939018 36.25219727 84.25439453 C33.11297691 78.81384294 29.97509437 73.37252784 26.83984375 67.9296875 C23.7342927 62.53891209 20.62327861 57.15131692 17.50976562 51.76513672 C15.88205883 48.94532445 14.25870605 46.12305885 12.63719177 43.29968262 C11.03315604 40.50986731 9.42221052 37.72404367 7.8125 34.9375 C7.21945068 33.90157715 6.62640137 32.8656543 6.01538086 31.79833984 C5.46760986 30.85297363 4.91983887 29.90760742 4.35546875 28.93359375 C3.87489014 28.09884521 3.39431152 27.26409668 2.89916992 26.40405273 C1.75926512 24.36103915 1.75926512 24.36103915 -0.375 23.5 Z M68.625 107.5 C68.295 108.16 67.965 108.82 67.625 109.5 C68.58975267 111.77131474 68.58975267 111.77131474 70.09765625 114.3203125 C70.66025146 115.31796631 71.22284668 116.31562012 71.80249023 117.34350586 C72.73557007 118.96784546 72.73557007 118.96784546 73.6875 120.625 C74.32437744 121.74720947 74.96125488 122.86941895 75.61743164 124.02563477 C81.02010049 133.53269561 86.53236233 142.97684341 92.0625 152.41015625 C95.7571331 158.71570419 99.41352681 165.04294436 103.0625 171.375 C103.68503662 172.45515381 104.30757324 173.53530762 104.94897461 174.64819336 C106.21076826 176.83796334 107.47240534 179.02782355 108.73388672 181.21777344 C111.86180148 186.64659942 114.99358448 192.07319281 118.125 197.5 C119.37501879 199.66665583 120.62501878 201.8333225 121.875 204 C122.49375 205.0725 123.1125 206.145 123.75 207.25 C125.625 210.5 127.5 213.75 129.375 217 C129.9949585 218.0739502 130.61491699 219.14790039 131.25366211 220.25439453 C132.49371393 222.40511194 133.7315358 224.55711674 134.96704102 226.71044922 C137.87799441 231.77762169 140.80933828 236.82898608 143.82247925 241.83599854 C145.23864757 244.19239697 146.641993 246.55631065 148.04443359 248.92089844 C149.03545688 250.57973358 150.04483744 252.22755833 151.0546875 253.875 C154.4658483 259.64096212 156.81899086 263.74185568 155.625 270.5 C152.1392891 272.82380726 150.76407768 272.75754914 146.64558411 272.7784729 C145.39616531 272.78963638 144.14674652 272.80079987 142.85946655 272.81230164 C141.47247344 272.81466667 140.08548 272.81684231 138.69848633 272.81884766 C137.23992862 272.82814443 135.78137624 272.83831272 134.3228302 272.84928894 C130.36033563 272.87663143 126.3978767 272.89175088 122.43531251 272.90471697 C118.29526819 272.92032896 114.15529685 272.94712531 110.01530457 272.9727478 C102.17433671 273.01956986 94.33335519 273.05629735 86.49231881 273.08942068 C77.56613462 273.12761788 68.64002366 273.17703431 59.71390116 273.22740483 C41.35098767 273.33077564 22.98802951 273.42001927 4.625 273.5 C5.54314938 275.38917053 6.46757438 277.27529166 7.39453125 279.16015625 C8.16567261 280.73615601 8.16567261 280.73615601 8.95239258 282.34399414 C15.59035025 294.86900929 26.35926172 307.86098826 37.625 316.5 C38.62917969 317.27859375 39.63335937 318.0571875 40.66796875 318.859375 C67.28695755 338.95048353 100.38183484 347.8972142 133.48266602 343.55224609 C165.19982908 338.78176281 194.43431385 321.65621092 214.203125 296.3046875 C216.48961646 293.11479207 218.61846507 289.87016346 220.625 286.5 C221.19492676 285.54335449 221.19492676 285.54335449 221.77636719 284.56738281 C227.93181197 274.0275157 232.38588791 263.26067615 235.625 251.5 C235.9653125 250.27667969 236.305625 249.05335938 236.65625 247.79296875 C243.79401291 216.7635272 237.23588271 183.14182231 220.9453125 156.0859375 C217.6306381 150.82865795 213.75438153 146.13384349 209.625 141.5 C208.56345703 140.24123047 208.56345703 140.24123047 207.48046875 138.95703125 C198.38002026 128.38083436 187.74995348 120.3247388 175.625 113.5 C174.55894531 112.89285156 173.49289062 112.28570312 172.39453125 111.66015625 C141.57458321 95.1481794 100.63878988 92.53647977 68.625 107.5 Z M-167.375 189.5 C-167.375 259.46 -167.375 329.42 -167.375 401.5 C-97.415 401.5 -27.455 401.5 44.625 401.5 C44.625 381.04 44.625 360.58 44.625 339.5 C39.345 335.54 34.065 331.58 28.625 327.5 C25.20355747 324.53987556 21.88955162 321.61171681 18.625 318.5 C18.03976563 317.97792969 17.45453125 317.45585937 16.8515625 316.91796875 C4.29339461 305.27365814 -4.72869047 289.09174566 -11.375 273.5 C-12.46086631 273.49641747 -12.46086631 273.49641747 -13.56866932 273.49276257 C-31.16985071 273.43366829 -48.77088452 273.35815419 -66.37191486 273.26428509 C-74.88359147 273.21928839 -83.39522588 273.17988275 -91.90698242 273.15356445 C-99.32443044 273.13061565 -106.74174534 273.09725279 -114.15908784 273.05129844 C-118.08780701 273.02732392 -122.016394 273.00862297 -125.94518471 273.00238609 C-129.64130211 272.99635421 -133.3370811 272.9764239 -137.03307343 272.94572449 C-139.03990752 272.93270493 -141.04682056 272.93451937 -143.05369568 272.9367218 C-144.83947525 272.91791458 -144.83947525 272.91791458 -146.66133118 272.89872742 C-147.69834828 272.89411845 -148.73536539 272.88950949 -149.80380726 272.88476086 C-152.375 272.5 -152.375 272.5 -154.20894146 271.15127277 C-156.05168745 268.54173288 -155.73829956 266.61820152 -155.375 263.5 C-154.15673828 260.61010742 -154.15673828 260.61010742 -152.4453125 257.60546875 C-151.50751953 255.93859009 -151.50751953 255.93859009 -150.55078125 254.23803711 C-149.86755763 253.05431103 -149.18395549 251.87080335 -148.5 250.6875 C-147.80240488 249.45962231 -147.10579716 248.23118315 -146.41015625 247.00219727 C-142.04033285 239.30454116 -137.58704405 231.65454857 -133.0625 224.046875 C-129.79787383 218.54613341 -126.60025472 213.00651049 -123.40234375 207.46682739 C-122.39419066 205.72073763 -121.38460907 203.97547291 -120.375 202.23022461 C-119.75625 201.15780518 -119.1375 200.08538574 -118.5 198.98046875 C-117.94570312 198.02035889 -117.39140625 197.06024902 -116.8203125 196.07104492 C-115.60839012 193.91517421 -114.48103204 191.71206409 -113.375 189.5 C-131.195 189.5 -149.015 189.5 -167.375 189.5 Z " fill="#607B96
" transform="translate(220.375,47.5)"/>
</svg>
